<?xml version="1.0" standalone="no"?>
<!DOCTYPE svg PUBLIC "-//W3C//DTD SVG 20010904//EN"
 "http://www.w3.org/TR/2001/REC-SVG-20010904/DTD/svg10.dtd">
<svg version="1.0" xmlns="http://www.w3.org/2000/svg"
 width="1000.000000pt" height="1000.000000pt" viewBox="0 0 1000.000000 1000.000000"
 preserveAspectRatio="xMidYMid meet">

<g transform="translate(0.000000,1000.000000) scale(0.100000,-0.100000)"
fill="#000000" stroke="none">
<path d="M4340 6133 c0 -10 -32 -85 -71 -168 -77 -165 -129 -312 -150 -423 -7
-40 -21 -81 -29 -90 -45 -50 -118 -180 -155 -278 -77 -203 -118 -542 -84 -680
18 -71 30 -59 44 44 6 44 30 92 46 92 5 0 9 -5 9 -12 0 -34 51 -136 93 -186
26 -31 47 -60 47 -65 0 -13 75 -119 110 -155 18 -18 46 -40 62 -49 33 -20 34
-24 8 -48 -26 -24 -25 -53 2 -82 l22 -23 -22 -20 c-12 -12 -22 -28 -21 -38 0
-13 3 -12 11 6 15 30 51 38 111 22 32 -8 73 -10 118 -6 80 8 109 2 109 -24 0
-27 11 -51 21 -45 5 3 6 26 3 51 -5 43 -4 45 18 42 17 -2 22 -8 19 -23 -2 -11
-6 -47 -8 -79 -3 -33 -12 -70 -20 -83 -14 -20 -13 -26 5 -55 11 -18 22 -50 25
-72 4 -21 13 -46 22 -56 20 -22 19 -42 -2 -38 -27 5 -39 28 -46 87 -4 34 -14
62 -27 76 -24 25 -26 48 -5 65 8 7 14 24 14 39 -1 19 -3 21 -6 7 -4 -16 -12
-18 -64 -12 -52 6 -60 5 -71 -14 -9 -14 -23 -20 -49 -20 -61 0 -98 11 -92 26
3 8 -12 30 -33 51 -37 38 -37 38 -30 10 6 -25 3 -28 -24 -33 -29 -6 -30 -9
-30 -56 0 -53 -13 -75 -102 -173 -85 -93 -225 -269 -263 -327 l-17 -28 46 -47
c44 -45 57 -75 36 -88 -38 -24 26 -103 134 -166 32 -19 93 -65 135 -103 41
-37 99 -84 128 -102 29 -19 53 -39 53 -44 0 -19 -82 -161 -95 -167 -7 -2 -27
3 -44 11 -73 38 -97 16 -107 -98 -5 -71 -8 -83 -36 -154 -18 -45 -19 -56 -8
-83 7 -16 16 -78 19 -137 l6 -107 65 -3 c64 -3 65 -2 84 30 35 60 49 61 76 8
l20 -40 203 0 c111 0 207 4 212 8 31 23 36 40 21 75 -8 20 -23 40 -33 46 -21
11 -83 130 -83 160 0 10 9 21 19 24 13 3 22 19 29 53 13 58 10 64 -29 64 -16
0 -29 4 -29 9 0 10 20 60 66 163 35 78 71 172 101 261 9 26 24 51 32 55 9 4
68 5 131 2 l115 -5 2 -85 c2 -47 -3 -130 -10 -185 -8 -57 -10 -107 -5 -117 19
-38 9 -66 -29 -85 -35 -17 -38 -21 -36 -57 2 -21 8 -45 15 -54 16 -18 30 -126
32 -242 l1 -85 67 -3 c66 -3 67 -2 83 27 19 38 19 55 -1 19 -13 -25 -20 -28
-64 -28 l-50 0 0 69 c0 67 1 69 30 81 19 8 47 10 77 5 48 -7 53 -11 125 -98
l23 -28 182 -2 c136 -1 184 -5 188 -15 3 -9 -41 -12 -200 -12 l-204 0 -15 28
c-18 35 -42 56 -55 48 -5 -3 4 -20 19 -36 16 -17 31 -39 34 -48 5 -15 25 -17
218 -14 117 2 216 7 220 11 4 3 10 21 14 37 5 27 1 37 -35 70 -26 26 -51 65
-71 113 -32 78 -37 120 -18 139 9 9 9 24 -1 64 -8 29 -18 58 -22 64 -10 12
-56 7 -65 -7 -3 -5 -16 -9 -30 -9 -23 0 -24 3 -24 69 0 59 -3 69 -19 74 -19 5
-23 26 -37 172 l-4 50 20 -55 c11 -30 24 -58 29 -63 4 -4 30 27 57 70 54 86
61 98 99 192 15 35 33 74 42 87 14 22 13 27 -8 61 -12 21 -31 49 -42 63 -10
14 -47 72 -82 130 -35 58 -73 117 -85 132 -11 14 -26 55 -34 90 -9 45 -15 58
-21 45 -6 -15 -11 -12 -36 20 -16 21 -29 43 -29 50 0 7 -13 32 -30 56 -16 25
-30 49 -30 53 0 5 -9 20 -20 34 -36 46 -20 52 55 20 31 -13 45 -16 43 -8 -3 7
-13 14 -24 16 -33 5 -94 35 -95 46 0 6 -3 22 -6 36 -3 14 -6 54 -7 90 -2 85
-10 106 -55 135 -26 16 -40 33 -44 54 -4 17 -11 31 -17 31 -6 0 -6 -7 2 -20 9
-14 9 -23 2 -30 -8 -8 -15 -2 -25 21 -10 26 -10 34 0 37 9 3 6 11 -10 28 -23
24 -23 25 -3 43 10 11 40 23 67 26 45 7 47 6 47 -18 0 -48 12 -87 28 -87 8 0
37 16 63 35 53 38 65 42 72 23 3 -7 6 -1 6 13 1 14 -2 28 -5 32 -3 3 -29 -12
-57 -34 -54 -41 -77 -48 -77 -25 0 7 -3 27 -6 43 -5 27 -2 31 38 49 52 23 103
74 124 123 9 20 19 80 23 133 7 89 20 128 42 128 5 0 9 -18 9 -40 0 -22 2 -40
5 -40 3 0 17 12 30 28 13 15 26 25 29 21 7 -7 28 -455 22 -494 -2 -16 -4 -36
-5 -42 -3 -31 -19 -9 -26 33 -3 25 -9 44 -11 41 -9 -8 8 -147 17 -147 5 0 18
18 29 40 22 44 26 117 10 234 -8 64 -6 74 22 145 17 42 31 77 33 79 1 1 23 -9
48 -23 51 -29 66 -21 43 22 -35 69 -56 158 -56 239 0 148 -55 366 -124 494
-27 48 -23 74 17 120 20 24 37 47 37 52 0 5 -9 21 -21 37 -19 26 -20 41 -20
212 1 101 4 205 7 230 4 30 2 49 -5 53 -6 4 -42 -11 -79 -33 -37 -22 -116 -65
-175 -95 -113 -58 -207 -124 -254 -179 l-28 -33 -146 4 c-139 4 -146 5 -160
27 -14 23 -174 200 -235 260 -16 17 -45 58 -63 93 -33 60 -61 81 -61 45z m253
-314 c43 -45 87 -103 98 -128 22 -51 48 -83 60 -75 5 2 4 16 -1 30 -6 14 -10
27 -10 30 0 3 72 4 160 2 141 -3 159 -1 155 12 -10 31 140 152 228 184 57 21
102 15 89 -12 -5 -9 -12 -30 -16 -47 -6 -27 -4 -26 19 13 26 42 39 50 50 32 9
-15 41 -12 56 6 22 26 31 -8 37 -133 5 -113 0 -131 -28 -98 -10 12 -10 24 -1
54 6 21 11 42 11 47 0 7 -169 7 -177 0 -2 -1 -6 -17 -9 -34 l-7 -32 29 15 c47
24 81 20 89 -12 3 -16 15 -37 25 -48 10 -11 29 -45 43 -75 l24 -55 -24 -38
c-21 -34 -26 -37 -41 -25 -9 7 -20 17 -24 23 -4 5 -9 7 -13 4 -3 -3 12 -28 34
-55 88 -111 160 -332 181 -554 5 -63 19 -143 29 -177 11 -35 15 -63 10 -63 -6
0 -24 7 -40 16 -36 18 -33 19 -58 -31 l-19 -39 -7 60 c-3 33 -5 64 -4 69 1 6
-1 23 -6 38 -5 19 -1 48 14 93 11 35 21 72 20 82 0 9 -7 -4 -14 -29 -12 -47
-62 -156 -74 -163 -9 -6 -6 176 4 199 4 11 -12 -5 -36 -35 -41 -52 -46 -55
-83 -52 -21 2 -52 -2 -68 -9 -16 -6 -31 -10 -33 -7 -3 3 11 26 31 52 58 73 31
67 -43 -11 -67 -70 -171 -139 -223 -150 l-28 -5 -8 83 -9 84 -5 -62 -5 -63
-54 31 -53 31 23 25 c30 31 69 51 92 45 15 -3 17 1 11 25 -8 35 -10 37 -24 28
-6 -4 -9 -13 -6 -21 3 -8 -8 -20 -29 -30 -19 -9 -35 -20 -35 -25 0 -13 -61
-41 -79 -36 -22 5 -135 -10 -178 -24 -18 -6 -33 -17 -33 -25 0 -16 -31 -19
-47 -3 -7 7 -12 1 -17 -21 -3 -18 -4 -36 -1 -40 3 -4 7 -59 10 -121 2 -63 11
-154 20 -204 8 -49 15 -98 15 -108 0 -16 -2 -17 -15 -4 -24 25 -71 109 -94
172 -21 55 -48 172 -71 305 -47 264 -1 563 108 700 43 55 102 109 120 110 14
0 17 20 2 20 -6 0 -1 18 10 41 12 23 19 47 16 55 -3 7 -27 19 -53 27 -26 8
-49 20 -50 28 -1 8 -5 35 -8 62 -7 50 -17 57 -48 30 -10 -10 -42 -27 -70 -39
-50 -21 -76 -54 -43 -54 9 0 16 4 16 9 0 6 16 7 35 4 21 -3 41 -1 50 7 21 18
43 5 47 -27 2 -17 9 -28 18 -28 32 0 53 -21 44 -46 -4 -13 -8 -34 -8 -46 -2
-27 -33 -63 -55 -63 -23 0 -91 68 -91 91 0 11 -8 22 -17 25 -10 3 -25 8 -33
11 -22 8 -93 3 -104 -7 -5 -5 9 -29 33 -56 46 -53 49 -66 22 -100 -27 -34 -58
-170 -45 -192 6 -9 34 -26 62 -37 l50 -20 -15 -35 c-8 -19 -19 -91 -24 -160
-5 -69 -16 -155 -24 -192 -8 -37 -15 -77 -14 -90 1 -13 6 -3 12 22 l10 45 9
-45 c4 -25 16 -78 25 -118 l17 -73 -42 -42 -42 -42 0 38 c0 20 -4 37 -9 37
-10 0 -24 -288 -17 -362 3 -41 2 -46 -13 -39 -30 17 -102 96 -142 156 -21 33
-43 65 -48 71 -5 6 -17 38 -26 70 -9 32 -21 66 -25 75 -5 9 -12 38 -16 65 l-8
49 -8 -44 c-5 -31 -3 -60 7 -93 15 -53 4 -56 -19 -5 -27 60 -44 122 -50 192
-11 105 -19 120 -26 45 -7 -65 -48 -190 -63 -190 -8 0 -5 66 9 235 13 154 65
333 139 479 54 108 89 154 112 152 15 -1 21 18 39 129 23 141 61 265 96 320
21 31 26 34 71 32 46 -2 47 -3 53 -37 10 -63 12 -66 13 -19 1 62 12 71 70 54
37 -11 61 -30 124 -96z m-159 -270 c-7 -12 -44 8 -44 25 0 7 3 16 7 20 10 9
45 -33 37 -45z m86 -63 c0 -3 -4 -8 -10 -11 -5 -3 -10 -1 -10 4 0 6 5 11 10
11 6 0 10 -2 10 -4z m940 -671 c0 -14 -4 -25 -10 -25 -11 0 -14 33 -3 43 11
11 13 8 13 -18z m-73 -97 c-3 -8 -6 -5 -6 6 -1 11 2 17 5 13 3 -3 4 -12 1 -19z
m-187 3 c0 -6 -4 -13 -10 -16 -17 -10 -11 -25 10 -25 14 0 20 -7 20 -22 0 -21
1 -21 13 -3 8 10 19 15 26 11 8 -5 14 0 18 13 5 21 43 30 43 10 0 -6 14 -9 33
-7 l32 3 0 -76 c-1 -180 -109 -259 -352 -259 -137 0 -269 28 -315 68 -16 13
-18 13 -18 -1 0 -9 4 -19 10 -22 5 -3 18 -25 29 -48 25 -53 54 -101 64 -105 4
-2 7 -9 7 -15 0 -7 11 -34 25 -61 14 -27 24 -51 22 -52 -2 -2 -18 11 -37 27
-19 17 -53 43 -75 58 -84 56 -123 87 -136 106 -29 46 -55 385 -29 385 4 0 17
-21 28 -47 12 -27 21 -40 22 -30 0 10 -5 27 -10 38 -14 25 1 24 31 -2 26 -23
36 -11 19 22 -10 17 -9 23 1 30 29 18 46 9 58 -33 9 -27 15 -37 21 -28 5 8 21
11 44 8 32 -4 36 -1 41 24 4 15 11 28 16 28 11 0 49 -37 49 -48 0 -4 16 -9 35
-10 27 -2 35 1 35 14 0 10 5 14 15 11 16 -7 85 15 143 44 41 20 72 24 72 10z
m-760 -237 c11 -25 20 -53 20 -61 0 -18 64 -138 88 -165 20 -23 10 -23 -37 2
-22 10 -57 40 -78 65 l-39 46 -30 -43 -29 -43 -5 45 c-3 25 -5 67 -4 94 2 43
7 54 36 78 18 15 39 28 46 28 7 0 22 -21 32 -46z m-22 -166 c19 -19 14 -37 -8
-31 -17 4 -20 0 -20 -25 0 -35 -31 -79 -48 -68 -20 12 -14 46 16 92 28 46 40
52 60 32z m387 -28 c3 -5 1 -10 -4 -10 -6 0 -11 5 -11 10 0 6 2 10 4 10 3 0 8
-4 11 -10z m120 -26 c0 -15 -37 -64 -49 -64 -4 0 -21 15 -37 33 l-28 32 37 6
c50 9 77 6 77 -7z m98 -24 c3 -11 3 -20 0 -20 -10 0 -41 45 -36 53 7 11 30
-10 36 -33z m-49 -1 c-10 -16 -24 -9 -24 12 0 18 2 19 15 9 8 -7 12 -16 9 -21z
m-515 0 c17 -6 31 -15 31 -20 0 -5 -12 -3 -27 4 -16 8 -35 17 -43 20 -29 10 7
7 39 -4z m211 -18 c7 -14 7 -22 -1 -26 -13 -9 -22 0 -24 25 -2 25 11 26 25 1z
m270 -22 c0 -9 -58 -49 -71 -49 -3 0 -11 11 -17 25 -11 23 -10 25 6 16 12 -7
24 -4 41 10 22 18 41 18 41 -2z m40 6 c0 -8 -4 -15 -10 -15 -5 0 -10 7 -10 15
0 8 5 15 10 15 6 0 10 -7 10 -15z m35 -5 c3 -5 1 -10 -4 -10 -6 0 -11 5 -11
10 0 6 2 10 4 10 3 0 8 -4 11 -10z m-595 -30 c6 -11 8 -20 4 -20 -3 0 4 -9 17
-19 23 -19 23 -20 4 -27 -11 -4 -24 -13 -28 -21 -10 -16 -29 -17 -45 -1 -6 6
-21 12 -32 13 -18 2 -19 0 -5 -15 16 -18 20 -40 7 -40 -5 0 -20 13 -35 28
l-27 28 21 17 c12 11 28 15 40 12 16 -5 19 -1 19 23 0 43 41 58 60 22z m345
-18 c-7 -8 -35 7 -35 18 0 6 7 6 20 -2 10 -7 17 -14 15 -16z m238 1 c-13 -2
-33 -2 -45 0 -13 2 -3 4 22 4 25 0 35 -2 23 -4z m91 -2 c3 -4 -3 -16 -14 -26
-14 -13 -20 -31 -20 -61 0 -63 16 -91 56 -99 52 -9 42 -29 -11 -22 -48 5 -82
28 -96 64 -21 55 58 189 85 144z m96 -51 c40 -40 13 -100 -45 -100 -39 0 -58
20 -58 60 0 16 5 36 13 44 18 22 66 20 90 -4z m-356 -46 c11 -30 6 -37 -14
-19 -11 10 -20 22 -20 27 0 15 28 9 34 -8z m50 -9 c20 -30 36 -32 36 -5 0 15
7 20 29 20 24 0 29 -5 33 -29 4 -27 2 -29 -40 -35 -72 -10 -82 -8 -82 15 0 11
-5 29 -10 40 -16 30 14 25 34 -6z m-69 -71 c5 -59 18 -110 38 -142 l20 -34
-22 -28 c-16 -22 -21 -44 -21 -89 0 -42 -5 -64 -16 -76 -20 -20 -44 -4 -27 17
16 19 19 139 5 165 -7 12 -12 32 -12 45 l0 23 20 -25 c11 -14 20 -31 20 -37 0
-19 20 -16 20 2 0 9 -9 28 -19 43 -20 28 -45 147 -35 164 11 17 27 2 29 -28z
m-85 -30 c0 -8 -4 -12 -10 -9 -5 3 -10 10 -10 16 0 5 5 9 10 9 6 0 10 -7 10
-16z m305 -5 c64 -17 70 -23 73 -70 4 -49 -11 -116 -38 -174 -10 -22 -20 -53
-22 -70 -3 -25 3 -32 37 -52 51 -29 95 -30 102 -3 3 11 9 20 13 20 9 0 35 -61
44 -106 7 -30 5 -32 -26 -37 -18 -4 -67 -9 -110 -13 l-76 -7 -7 69 c-3 38 -7
74 -8 81 -1 6 -36 35 -77 65 -59 42 -76 59 -78 81 -3 22 1 30 17 34 17 4 20
13 19 49 0 30 -5 44 -14 44 -14 0 -20 63 -9 92 7 17 92 15 160 -3z m194 -58
c13 -66 88 -219 145 -295 38 -50 84 -123 123 -196 16 -30 41 -73 55 -95 14
-22 38 -67 53 -99 l28 -60 -34 -65 c-36 -70 -126 -201 -138 -201 -7 0 -20 36
-91 250 -49 147 -62 193 -94 320 -13 52 -31 118 -40 145 -60 198 -66 223 -66
286 0 54 4 70 18 78 23 13 27 6 41 -68z m-519 27 c0 -5 -9 -21 -20 -35 l-20
-26 0 40 c0 22 3 43 7 46 7 8 33 -11 33 -25z m-5 -106 c-5 -14 -8 -14 -15 -2
-5 8 -4 22 3 34 10 19 11 20 15 3 2 -10 1 -26 -3 -35z m-397 -17 c-4 -31 -17
-36 -32 -12 -8 14 -8 20 4 27 24 16 32 12 28 -15z m213 -6 c12 -23 6 -35 -20
-42 -30 -7 -44 15 -30 46 13 28 33 26 50 -4z m174 -46 c-8 -57 -25 -81 -25
-37 0 27 19 84 29 84 2 0 0 -21 -4 -47z m-472 -25 c-44 -31 -58 -83 -37 -133
9 -21 14 -49 11 -61 -2 -13 -1 -21 4 -19 4 3 5 -28 2 -69 -4 -49 -2 -85 6
-103 18 -40 97 -96 129 -90 17 3 26 0 29 -12 3 -13 13 -16 39 -13 19 2 34 1
34 -2 0 -4 -23 -43 -51 -87 -36 -55 -57 -79 -71 -79 -18 0 -113 47 -216 108
-40 23 -43 28 -40 58 3 27 1 31 -10 22 -38 -32 9 -88 118 -140 25 -12 66 -35
92 -51 72 -43 85 -37 146 73 47 85 55 95 78 93 15 -1 28 -3 29 -5 1 -2 0 -49
-4 -106 -3 -57 -2 -110 3 -119 9 -17 2 -180 -9 -191 -11 -12 -214 101 -268
149 -29 25 -89 75 -133 111 -78 61 -144 127 -144 143 0 4 9 20 21 36 l20 29
-43 46 c-24 25 -45 50 -46 55 -5 14 30 60 179 232 52 60 100 117 108 128 7 10
23 19 35 19 18 0 17 -3 -11 -22z m99 -14 c37 -17 68 -63 68 -99 0 -31 -34 -62
-81 -76 -30 -9 -41 -8 -63 6 -15 10 -24 20 -22 23 3 3 11 1 18 -5 28 -21 66
-13 92 18 14 17 26 38 26 48 0 22 -28 61 -43 61 -7 -1 -6 -5 4 -13 19 -15 10
-66 -18 -96 l-20 -21 -46 36 c-54 42 -55 61 -6 107 34 31 46 33 91 11z m136
-6 c34 -9 42 -15 42 -34 0 -33 -18 -39 -48 -17 -15 11 -42 28 -60 37 -18 9
-30 21 -27 25 5 9 18 8 93 -11z m332 1 c0 -9 -71 -31 -78 -24 -7 7 10 26 32
34 23 9 46 4 46 -10z m-220 -39 c0 -22 -22 -35 -44 -27 -9 4 -12 14 -9 26 7
29 53 29 53 1z m349 -24 c68 -52 67 -50 78 -284 l6 -145 -134 6 c-74 4 -156
10 -182 13 -41 6 -48 10 -45 28 2 14 15 25 38 32 32 11 36 10 47 -11 7 -13 22
-27 33 -30 30 -10 79 4 90 25 14 27 12 87 -4 118 -19 36 -24 199 -8 229 7 12
12 31 12 42 0 12 3 21 6 21 3 0 32 -20 63 -44z m-479 -21 c0 -33 -10 -55 -26
-55 -10 0 -9 7 4 31 13 24 14 33 5 36 -7 3 -13 9 -13 14 0 4 7 6 15 3 8 -4 15
-17 15 -29z m695 25 c3 -5 -1 -10 -9 -10 -8 0 -18 5 -21 10 -3 6 1 10 9 10 8
0 18 -4 21 -10z m-40 -39 c-6 -5 -25 10 -25 20 0 5 6 4 14 -3 8 -7 12 -15 11
-17z m-510 6 c43 -11 50 -17 53 -40 3 -28 -1 -31 -49 -27 -14 0 -36 -8 -50
-19 -20 -17 -21 -20 -6 -21 13 0 17 -8 17 -34 0 -30 -3 -34 -33 -40 -62 -12
-116 -95 -76 -117 32 -17 42 -5 20 23 -13 16 -17 29 -11 33 6 3 13 -1 16 -9 9
-22 23 -10 17 14 -4 14 0 20 11 20 9 0 16 -4 16 -10 0 -5 8 -10 18 -10 28 0
58 -71 43 -99 -11 -20 -16 -23 -43 -25 -7 -1 -16 -5 -20 -11 -4 -5 -16 -4 -31
4 -14 7 -34 10 -45 6 -12 -3 -30 -2 -40 4 -11 6 -34 13 -52 16 -34 6 -73 29
-102 61 -16 18 -21 56 -19 138 l1 39 40 -7 c30 -5 52 0 94 19 31 14 76 28 101
32 34 4 45 10 45 24 0 27 11 49 24 49 6 0 34 -6 61 -13z m129 -59 c12 -57 15
-167 6 -173 -5 -3 -10 -15 -10 -26 0 -18 -4 -20 -32 -14 -18 4 -35 9 -37 11
-3 2 3 41 13 87 9 45 19 94 22 110 7 33 32 36 38 5z m-83 -108 c-9 -23 -10
-21 -10 16 -1 22 2 44 7 48 11 12 14 -37 3 -64z m633 -22 c24 -91 32 -139 26
-143 -5 -3 -46 -10 -92 -15 -123 -15 -128 -17 -128 -45 0 -14 -4 -25 -9 -25
-13 0 -20 41 -23 135 -2 64 0 80 12 83 21 3 161 19 188 21 12 0 24 -5 26 -11z
m-724 -14 c0 -8 -5 -12 -10 -9 -6 4 -8 11 -5 16 9 14 15 11 15 -7z m274 -69
c8 -23 -4 -45 -25 -45 -25 0 -35 26 -19 45 16 19 36 19 44 0z m26 -45 c0 -5
-5 -10 -11 -10 -5 0 -7 5 -4 10 3 6 8 10 11 10 2 0 4 -4 4 -10z m-254 -157
c-8 -112 -11 -127 -27 -118 -14 9 -11 199 3 213 27 27 31 10 24 -95z m773 -50
c29 -92 51 -211 65 -345 l6 -58 -59 0 c-43 0 -60 -4 -65 -15 -7 -20 -176 -22
-177 -2 -1 42 3 250 6 284 3 32 -4 56 -36 118 -22 43 -37 81 -34 84 4 3 52 11
108 17 172 19 151 28 186 -83z m-518 71 c6 -4 2 -141 -6 -203 -2 -19 -15 -62
-29 -95 -14 -34 -36 -91 -50 -127 -14 -36 -41 -100 -61 -141 -19 -42 -35 -80
-35 -84 0 -5 -9 -20 -19 -33 -18 -24 -20 -24 -67 -11 -27 8 -83 31 -124 52
-41 21 -87 38 -103 38 -36 0 -44 22 -19 57 11 15 30 49 42 76 24 51 37 56 84
32 41 -22 55 -19 62 13 19 86 22 84 23 -16 1 -57 5 -101 9 -98 5 3 12 65 16
138 5 100 11 135 21 141 9 4 15 22 15 40 0 18 4 37 9 43 6 5 13 51 17 103 l7
93 101 -7 c56 -4 104 -9 107 -11z m148 -4 l46 -1 38 -79 c54 -115 53 -116 -44
-123 -44 -4 -100 -4 -125 0 l-44 6 0 98 c0 105 3 112 54 104 16 -3 49 -5 75
-5z m351 -520 c0 -11 -4 -20 -10 -20 -5 0 -10 9 -10 20 0 11 5 20 10 20 6 0
10 -9 10 -20z m-924 -116 c30 -14 33 -19 27 -47 -11 -62 -31 -97 -49 -90 -11
4 -23 -2 -34 -17 -16 -21 -21 -23 -44 -12 -17 8 -26 19 -26 34 1 27 29 82 30
57 0 -9 9 -24 20 -34 18 -16 23 -17 45 -5 44 23 29 90 -20 90 -12 0 -26 -5
-33 -12 -16 -16 -17 5 -2 33 13 23 41 24 86 3z m824 -11 c22 -7 -45 -33 -86
-33 -26 0 -34 4 -34 18 0 10 2 21 5 24 6 6 90 0 115 -9z m-988 -65 c24 -17 27
-25 24 -61 -3 -37 -8 -45 -45 -65 -39 -23 -43 -23 -67 -7 -14 9 -29 26 -33 39
-8 20 1 105 14 126 7 12 74 -8 107 -32z m1086 9 c7 -15 16 -43 19 -62 5 -28 2
-35 -11 -35 -9 0 -21 -11 -26 -25 -7 -19 -17 -25 -39 -25 -30 0 -41 14 -41 51
0 17 4 19 23 13 61 -20 102 20 61 61 -23 23 -66 15 -81 -15 -12 -24 -13 -24
-13 13 0 30 5 40 23 47 38 16 71 7 85 -23z m-953 -7 c3 -5 -3 -10 -14 -10 -12
0 -21 5 -21 10 0 6 6 10 14 10 8 0 18 -4 21 -10z m915 -50 c0 -5 -4 -10 -10
-10 -5 0 -10 5 -10 10 0 6 5 10 10 10 6 0 10 -4 10 -10z m-74 -69 c3 -14 7
-30 8 -36 4 -13 -53 -55 -74 -55 -9 0 -31 7 -48 16 -23 11 -33 24 -38 50 -8
43 0 52 51 56 71 5 95 -2 101 -31z m-947 -128 c14 -11 45 -45 69 -76 l43 -57
185 0 c116 0 184 -4 184 -10 0 -6 -37 -11 -87 -12 -182 -4 -305 -3 -313 2 -4
3 -15 20 -24 38 -9 17 -23 32 -30 32 -8 0 -30 -18 -49 -40 -29 -35 -39 -40
-75 -40 -23 0 -42 3 -43 8 0 4 -2 32 -3 62 -2 30 -6 70 -11 89 l-7 34 67 -5
c44 -4 76 -13 94 -25z"/>
<path d="M5256 5602 c-3 -6 -1 -14 5 -17 14 -9 20 -2 10 14 -6 8 -11 9 -15 3z"/>
<path d="M4815 5475 c-65 -70 -70 -87 -8 -26 60 59 78 81 67 81 -5 0 -31 -25
-59 -55z"/>
<path d="M5341 5154 c-1 -29 6 -65 14 -80 l15 -29 0 30 c0 17 -7 53 -14 80
l-14 50 -1 -51z"/>
<path d="M5324 5003 c-6 -43 -9 -80 -7 -83 16 -19 38 104 25 139 -6 17 -10 3
-18 -56z"/>
<path d="M5558 5043 c5 -59 10 -63 11 -10 1 26 -3 47 -7 47 -4 0 -6 -17 -4
-37z"/>
<path d="M4591 5044 c0 -11 3 -14 6 -6 3 7 2 16 -1 19 -3 4 -6 -2 -5 -13z"/>
<path d="M5371 4973 c-1 -35 -5 -53 -13 -53 -7 0 -5 -5 5 -11 10 -6 17 -23 18
-42 1 -28 2 -27 10 12 5 24 5 49 2 55 -4 6 -10 29 -14 51 -6 40 -7 40 -8 -12z"/>
<path d="M4581 4994 c0 -11 3 -14 6 -6 3 7 2 16 -1 19 -3 4 -6 -2 -5 -13z"/>
<path d="M4026 4871 c-4 -7 -5 -15 -2 -18 9 -9 19 4 14 18 -4 11 -6 11 -12 0z"/>
<path d="M3941 4854 c0 -11 3 -14 6 -6 3 7 2 16 -1 19 -3 4 -6 -2 -5 -13z"/>
<path d="M4021 4804 c0 -11 3 -14 6 -6 3 7 2 16 -1 19 -3 4 -6 -2 -5 -13z"/>
<path d="M4013 4720 c0 -25 2 -35 4 -22 2 12 2 32 0 45 -2 12 -4 2 -4 -23z"/>
<path d="M4332 4710 c0 -14 2 -19 5 -12 2 6 2 18 0 25 -3 6 -5 1 -5 -13z"/>
<path d="M4322 4630 c0 -19 2 -27 5 -17 2 9 2 25 0 35 -3 9 -5 1 -5 -18z"/>
<path d="M4641 4554 c0 -11 3 -14 6 -6 3 7 2 16 -1 19 -3 4 -6 -2 -5 -13z"/>
<path d="M4818 4543 c7 -3 16 -2 19 1 4 3 -2 6 -13 5 -11 0 -14 -3 -6 -6z"/>
<path d="M5117 4066 c-7 -19 18 -42 28 -26 8 13 -1 40 -14 40 -5 0 -11 -6 -14
-14z"/>
<path d="M4875 3720 c3 -5 10 -10 16 -10 5 0 9 5 9 10 0 6 -7 10 -16 10 -8 0
-12 -4 -9 -10z"/>
<path d="M4152 3435 c-7 -14 -12 -34 -12 -43 0 -9 -9 -30 -20 -47 -25 -37 -26
-56 -2 -24 24 33 40 68 47 107 8 39 2 41 -13 7z"/>
<path d="M4076 3275 c-9 -26 -7 -32 5 -12 6 10 9 21 6 23 -2 3 -7 -2 -11 -11z"/>
<path d="M4311 3117 c-13 -21 -12 -21 5 -5 10 10 16 20 13 22 -3 3 -11 -5 -18
-17z"/>
<path d="M4254 3115 c36 -19 47 -19 22 0 -11 8 -27 15 -35 15 -9 0 -3 -7 13
-15z"/>
<path d="M5459 4299 c-21 -41 -95 -129 -109 -129 -4 0 -5 12 -2 28 4 26 4 26
-12 7 -14 -19 -23 -75 -10 -75 16 0 90 71 122 119 53 79 53 79 43 86 -6 3 -20
-13 -32 -36z"/>
<path d="M5351 4254 c0 -11 3 -14 6 -6 3 7 2 16 -1 19 -3 4 -6 -2 -5 -13z"/>
<path d="M3337 4008 c-14 -24 -94 -162 -177 -308 l-152 -265 35 -140 c20 -77
61 -234 92 -350 31 -115 78 -298 106 -405 60 -233 106 -397 114 -410 6 -10 35
-14 35 -6 0 4 109 371 135 456 8 25 34 110 59 190 24 80 65 213 91 295 26 83
61 195 77 250 l30 100 -190 315 c-138 228 -196 316 -210 318 -15 2 -27 -8 -45
-40z m217 -305 c86 -144 159 -269 162 -277 5 -12 -30 -14 -245 -14 -138 0
-264 4 -279 8 -19 6 -4 9 56 9 75 1 83 3 78 19 -3 9 -24 79 -46 155 l-40 137
67 125 c52 95 71 121 79 112 7 -7 82 -130 168 -274z m-321 -8 c-3 -9 -8 -14
-10 -11 -3 3 -2 9 2 15 9 16 15 13 8 -4z m-25 -334 c9 -6 52 -30 94 -55 43
-25 80 -46 83 -46 3 0 24 -12 46 -26 45 -28 43 -42 -14 -65 -18 -7 -65 -33
-105 -56 -40 -24 -81 -43 -91 -43 -29 0 -99 82 -107 127 -4 21 -11 46 -16 56
-8 15 -1 28 34 67 47 53 50 54 76 41z m45 -351 c14 -11 28 -20 32 -20 3 0 32
-17 64 -37 104 -67 98 -61 81 -72 -8 -5 -48 -34 -88 -65 -99 -75 -105 -71
-152 94 -18 63 -18 65 1 92 24 33 29 34 62 8z m225 -327 l20 -18 -23 -77 c-13
-42 -28 -86 -34 -97 l-12 -21 -52 26 c-103 52 -125 100 -64 141 103 68 130 76
165 46z m-48 -240 c-1 -30 -47 -177 -56 -180 -11 -3 -44 105 -44 141 0 17 9
30 28 40 38 21 72 20 72 -1z"/>
<path d="M5371 3760 c-14 -63 -14 -60 2 -60 8 0 13 19 15 55 1 30 0 55 -2 55
-2 0 -9 -23 -15 -50z"/>
<path d="M5410 3645 c0 -14 5 -25 10 -25 6 0 10 11 10 25 0 14 -4 25 -10 25
-5 0 -10 -11 -10 -25z"/>
</g>
</svg>
